<?xml version="1.0" encoding="utf-8"?>
<!-- Generator: Adobe Illustrator 24.0.0, SVG Export Plug-In . SVG Version: 6.00 Build 0)  -->
<svg version="1.1" id="Layer_1" xmlns="http://www.w3.org/2000/svg" xmlns:xlink="http://www.w3.org/1999/xlink" x="0px" y="0px"
	 viewBox="0 0 320 258.7" style="enable-background:new 0 0 320 258.7;" xml:space="preserve">
<style type="text/css">
	.st0{fill:#7045AF;}
	.st1{fill:#111111;}
</style>
<g id="SvgjsG3163" transform="matrix(2.070573962036107,0,0,2.070573962036107,58.00661257505118,-23.293957072906206)">
	<path class="st0" d="M9.7,44.5c-0.1-0.8,0.3-1.5,1-1.8l21.6-10.2c0.4-0.2,0.9-0.3,1.3-0.3h9.6c3.5,0,6.4,2.9,6.4,6.4V88
		c0,0.7-0.4,1.3-1,1.5c-0.2,0.1-0.4,0.1-0.5,0.1c-0.7,0-1.3-0.4-1.5-1l-6.8-18.8l-11,19.1c-0.3,0.5-0.8,0.8-1.4,0.8
		c-0.5-0.1-0.6-0.1-0.8-0.2c-0.5-0.3-0.8-0.8-0.8-1.4l4.8-27.3V42.4l-18.8,3.3c-0.8,0.1-1.5-0.3-1.8-1L9.7,44.5L9.7,44.5z
		 M33.6,19.5c0-3.5,2.9-6.4,6.4-6.4s6.4,2.9,6.4,6.4s-2.9,6.4-6.4,6.4S33.6,23,33.6,19.5L33.6,19.5z M57.5,22.7
		c0-3.5,2.9-6.4,6.4-6.4c3.5,0,6.4,2.9,6.4,6.4s-2.9,6.4-6.4,6.4C60.3,29.1,57.5,26.2,57.5,22.7L57.5,22.7z M87,23.7
		c0.2-0.1,0.5-0.2,0.8-0.2c0.4,0,0.8,0.2,1.1,0.5c0.3,0.3,0.5,0.7,0.5,1.1c0,0.4-0.2,0.8-0.5,1.1L75,40.1l0,20.7l4.8,27
		c0.1,0.7-0.2,1.3-0.8,1.7c-1.2,0.3-1.8,0-2.2-0.6l-11-19L59,88.6c-0.2,0.6-0.8,1-1.5,1c-0.2,0-0.4,0-0.5-0.1c-0.6-0.2-1-0.8-1-1.5
		V45c0-2.4,1.3-4.4,3.2-5.5L87,23.7L87,23.7z"/>
</g>
<g id="SvgjsG3164" transform="matrix(3.8284703083666827,0,0,3.8284703083666827,-0.7473163628955195,159.156537761964)">
	<path class="st1" d="M8.9,5.2h6.2v2.7h-1.3L10,20H6L2.3,7.9H0.8V5.2h6.3v2.7H5.5l2.5,8.4l2.5-8.4H8.9C8.9,7.9,8.9,5.2,8.9,5.2z
		 M23.1,20.3c-0.7,0-1.3-0.1-1.9-0.3c-0.6-0.2-1.2-0.4-1.7-0.8c-0.5-0.3-1-0.7-1.4-1.2c-0.4-0.5-0.8-1-1.1-1.6
		c-0.3-0.6-0.5-1.2-0.7-1.8c-0.2-0.7-0.3-1.3-0.3-2s0.1-1.4,0.3-2s0.4-1.3,0.7-1.8c0.3-0.6,0.7-1.1,1.1-1.6C18.5,6.7,19,6.3,19.5,6
		c0.5-0.3,1.1-0.6,1.7-0.8s1.2-0.3,1.9-0.3c0.7,0,1.3,0.1,1.9,0.3c0.6,0.2,1.2,0.4,1.7,0.8c0.5,0.3,1,0.7,1.4,1.2
		c0.4,0.5,0.8,1,1.1,1.6c0.3,0.6,0.5,1.2,0.7,1.8c0.2,0.7,0.3,1.3,0.3,2c0,0.7-0.1,1.4-0.3,2c-0.2,0.7-0.4,1.3-0.7,1.8
		c-0.3,0.6-0.7,1.1-1.1,1.6c-0.4,0.5-0.9,0.9-1.4,1.2c-0.5,0.3-1.1,0.6-1.7,0.8C24.4,20.2,23.7,20.3,23.1,20.3L23.1,20.3z
		 M23.1,17.2c0.6,0,1.1-0.1,1.5-0.4c0.5-0.2,0.9-0.6,1.2-1c0.3-0.4,0.6-0.9,0.8-1.5c0.2-0.6,0.3-1.1,0.3-1.8c0-0.6-0.1-1.2-0.3-1.8
		c-0.2-0.6-0.4-1-0.8-1.5c-0.3-0.4-0.7-0.8-1.2-1S23.6,8,23.1,8S22,8.1,21.6,8.3c-0.5,0.2-0.9,0.6-1.2,1c-0.3,0.4-0.6,0.9-0.8,1.5
		c-0.2,0.6-0.3,1.2-0.3,1.8c0,0.6,0.1,1.2,0.3,1.8c0.2,0.6,0.5,1,0.8,1.5c0.3,0.4,0.7,0.8,1.2,1S22.5,17.2,23.1,17.2L23.1,17.2z
		 M34.6,17.3h1.5V7.8h-1.8v1.9h-3.1V5.2h13.3v4.5h-3.2V7.8h-2v9.5h1.5V20h-6.2L34.6,17.3L34.6,17.3z M45.8,5.2h11.6v5h-3.1V8.1h-3.7
		v2.9h2.9v2.8h-2.9v3.4h3.7v-2.6h3.1V20H45.8v-2.7h1.5V8.1h-1.5V5.2L45.8,5.2z M63.1,5.2h6.2v2.7h-1.5v9.5h1.5V20h-6.2v-2.7h1.5V7.9
		h-1.5L63.1,5.2L63.1,5.2z M73.4,17.3h1.5V7.8h-1.8v1.9H70V5.2h13.3v4.5h-3.2V7.8h-2v9.5h1.5V20h-6.2L73.4,17.3L73.4,17.3z"/>
</g>
<g id="SvgjsG3165" transform="matrix(0.7876459055487971,0,0,0.7876459055487971,27.25961280371467,242.68370079814827)">
	<path class="st0" d="M8.3,4.6c2.1,0,3.9,0.7,5.3,2.1s2.1,3.2,2.1,5.3c0,2.2-0.7,4-2.1,5.4c-1.4,1.4-3.2,2.1-5.3,2.1
		c-2.1,0-3.9-0.7-5.3-2.1S1,14.2,0.9,12.1c0-2.1,0.7-3.9,2.1-5.3S6.2,4.7,8.3,4.6z M2.7,12.1c0,1.7,0.5,3.1,1.6,4.2s2.4,1.7,4,1.7
		c1.6,0,2.9-0.6,4-1.7c1.1-1.1,1.6-2.5,1.6-4.2c0-1.6-0.5-3-1.6-4.1S10,6.2,8.3,6.2c-1.6,0-3,0.6-4,1.7S2.8,10.4,2.7,12.1z M28.9,5
		l3.2,11.8h0L35.6,5h1.9L41,16.8h0L44.3,5H46l-4.2,14.2h-1.8l-3.5-12h0l-3.5,12h-1.8L27,5C27,5,28.9,5,28.9,5z M60.3,5l8.2,11.8h0V5
		h1.7v14.2h-2.1L59.9,7.4h0v11.8h-1.7V5C58.1,5,60.3,5,60.3,5z M99.9,5l4,6.4L108,5h2l-5.3,8.1v6.1h-1.7v-6.1L97.8,5
		C97.8,5,99.9,5,99.9,5z M128.4,4.6c2.1,0,3.9,0.7,5.3,2.1s2.1,3.2,2.1,5.3c0,2.2-0.7,4-2.1,5.4c-1.4,1.4-3.2,2.1-5.3,2.1
		c-2.1,0-3.9-0.7-5.3-2.1s-2.1-3.2-2.1-5.3c0-2.1,0.7-3.9,2.1-5.3C124.5,5.4,126.2,4.7,128.4,4.6z M122.8,12.1
		c0,1.7,0.5,3.1,1.6,4.2s2.4,1.7,4,1.7c1.6,0,2.9-0.6,4-1.7c1.1-1.1,1.6-2.5,1.6-4.2c0-1.6-0.5-3-1.6-4.1c-1-1.1-2.4-1.7-4.1-1.7
		c-1.6,0-3,0.6-4,1.7C123.4,9,122.8,10.4,122.8,12.1z M150.3,5v8.5c0,1.4,0.3,2.5,0.9,3.3c0.6,0.7,1.5,1.1,2.7,1.2
		c1.2,0,2.1-0.4,2.7-1.1s0.9-1.8,0.9-3.2V5h1.7v8.8c0,1.8-0.5,3.2-1.4,4.2c-0.9,1-2.2,1.5-3.9,1.5c-1.7,0-3-0.5-3.9-1.5
		c-0.9-1-1.4-2.4-1.4-4.2V5H150.3L150.3,5z M176.9,5c1.9,0,3.2,0.3,4.1,0.9c0.9,0.6,1.3,1.6,1.3,3c0,1-0.3,1.8-0.9,2.5
		c-0.6,0.6-1.5,1.1-2.6,1.3l4,6.5h-2.1l-3.8-6.4h-2.2v6.4H173V5H176.9L176.9,5z M176.7,11.2c1.3,0,2.3-0.2,2.9-0.6s0.9-1,0.9-1.8
		c0-0.8-0.3-1.4-0.8-1.8c-0.5-0.4-1.4-0.6-2.5-0.6h-2.5v4.7H176.7z M217.6,4.6c1.1,0,2.1,0.2,2.9,0.6c0.9,0.4,1.5,0.9,2.1,1.6
		l-1.5,1.1c-0.4-0.6-1-1-1.6-1.3c-0.6-0.3-1.3-0.4-2-0.4c-1.5,0-2.8,0.6-3.8,1.7s-1.6,2.5-1.6,4.2c0,1.7,0.5,3.1,1.5,4.2
		c1,1.1,2.3,1.7,3.9,1.7c1.7,0,3.1-0.7,4.1-2L223,17c-1.2,1.7-3,2.5-5.4,2.5c-2.1,0-3.8-0.7-5.1-2.1s-2-3.2-2.1-5.3
		c0-2.1,0.7-3.9,2.1-5.3S215.6,4.7,217.6,4.6L217.6,4.6z M237.2,5v6h7.6V5h1.7v14.2h-1.7v-6.6h-7.6v6.6h-1.7V5H237.2z M266.8,4.6
		c2.1,0,3.9,0.7,5.3,2.1s2.1,3.2,2.1,5.3c0,2.2-0.7,4-2.1,5.4c-1.4,1.4-3.2,2.1-5.3,2.1c-2.1,0-3.9-0.7-5.3-2.1s-2.1-3.2-2.1-5.3
		c0-2.1,0.7-3.9,2.1-5.3S264.6,4.7,266.8,4.6L266.8,4.6z M261.2,12.1c0,1.7,0.5,3.1,1.6,4.2s2.4,1.7,4,1.7c1.6,0,2.9-0.6,4-1.7
		c1.1-1.1,1.6-2.5,1.6-4.2c0-1.6-0.5-3-1.6-4.1c-1-1.1-2.4-1.7-4.1-1.7c-1.6,0-3,0.6-4,1.7S261.2,10.4,261.2,12.1L261.2,12.1z
		 M288.8,5v14.2h-1.7V5H288.8z M308.9,4.6c1.1,0,2.1,0.2,2.9,0.6c0.9,0.4,1.5,0.9,2.1,1.6l-1.5,1.1c-0.4-0.6-1-1-1.6-1.3
		s-1.3-0.4-2-0.4c-1.5,0-2.8,0.6-3.8,1.7s-1.6,2.5-1.6,4.2c0,1.7,0.5,3.1,1.5,4.2s2.3,1.7,3.9,1.7c1.7,0,3.1-0.7,4.1-2l1.3,1.1
		c-1.2,1.7-3,2.5-5.4,2.5c-2.1,0-3.8-0.7-5.1-2.1s-2-3.2-2.1-5.3c0-2.1,0.7-3.9,2-5.3S306.9,4.7,308.9,4.6L308.9,4.6z M335.8,5v1.6
		h-7.2V11h6.7v1.6h-6.7v5h7.6v1.6h-9.3V5L335.8,5L335.8,5z"/>
</g>
</svg>
