<?xml version="1.0" encoding="utf-8"?>
<!-- Generator: Adobe Illustrator 24.0.0, SVG Export Plug-In . SVG Version: 6.00 Build 0)  -->
<svg version="1.1" id="Layer_1" xmlns="http://www.w3.org/2000/svg" xmlns:xlink="http://www.w3.org/1999/xlink" x="0px" y="0px"
	 viewBox="0 0 320 90.9" style="enable-background:new 0 0 320 90.9;" xml:space="preserve">
<style type="text/css">
	.st0{fill:#7045AF;}
	.st1{fill:#111111;}
</style>
<g id="SvgjsG3163" transform="matrix(2.070573962036107,0,0,2.070573962036107,58.00661257505118,-23.293957072906206)">
	<path class="st0" d="M-26.7,29.3c0-0.4,0.1-0.7,0.5-0.9l10.5-5c0.2-0.1,0.4-0.1,0.6-0.1h4.7c1.7,0,3.1,1.4,3.1,3.1v24
		c0,0.3-0.2,0.6-0.5,0.7c-0.1,0-0.2,0-0.2,0c-0.3,0-0.6-0.2-0.7-0.5l-3.3-9.1l-5.4,9.3c-0.1,0.2-0.4,0.4-0.7,0.4
		c-0.2,0-0.3,0-0.4-0.1c-0.2-0.1-0.4-0.4-0.4-0.7l2.3-13.3v-9l-9.1,1.6c-0.4,0-0.7-0.1-0.9-0.5L-26.7,29.3L-26.7,29.3z M-15.1,17.2
		c0-1.7,1.4-3.1,3.1-3.1s3.1,1.4,3.1,3.1c0,1.7-1.4,3.1-3.1,3.1S-15.1,18.9-15.1,17.2L-15.1,17.2z M-3.5,18.7c0-1.7,1.4-3.1,3.1-3.1
		s3.1,1.4,3.1,3.1c0,1.7-1.4,3.1-3.1,3.1C-2.1,21.8-3.5,20.4-3.5,18.7L-3.5,18.7z M10.9,19.2c0.1,0,0.2-0.1,0.4-0.1
		c0.2,0,0.4,0.1,0.5,0.2c0.1,0.1,0.2,0.3,0.2,0.5s-0.1,0.4-0.2,0.5L5,27.2v10.1l2.3,13.1c0,0.3-0.1,0.6-0.4,0.8
		c-0.6,0.1-0.9,0-1.1-0.3l-5.4-9.2l-3.3,9.1c-0.1,0.3-0.4,0.5-0.7,0.5c-0.1,0-0.2,0-0.2,0c-0.3-0.1-0.5-0.4-0.5-0.7V29.6
		c0-1.2,0.6-2.1,1.6-2.7L10.9,19.2L10.9,19.2z"/>
</g>
<g id="SvgjsG3164" transform="matrix(3.8284703083666827,0,0,3.8284703083666827,-0.7473163628955195,159.156537761964)">
	<path class="st1" d="M30-33.9h4.4v1.9h-0.9l-2.7,8.6h-2.8l-2.6-8.6h-1.1v-1.9h4.5v1.9h-1.1l1.8,5.9l1.8-5.9H30
		C30-31.9,30-33.9,30-33.9z M40-23.2c-0.5,0-0.9-0.1-1.3-0.2c-0.4-0.1-0.8-0.3-1.2-0.6c-0.4-0.2-0.7-0.5-1-0.8
		c-0.3-0.4-0.6-0.7-0.8-1.1c-0.2-0.4-0.4-0.8-0.5-1.3c-0.1-0.5-0.2-0.9-0.2-1.4c0-0.5,0.1-1,0.2-1.4s0.3-0.9,0.5-1.3
		c0.2-0.4,0.5-0.8,0.8-1.1c0.3-0.4,0.6-0.6,1-0.8c0.4-0.2,0.8-0.4,1.2-0.6c0.4-0.1,0.8-0.2,1.3-0.2c0.5,0,0.9,0.1,1.3,0.2
		c0.4,0.1,0.8,0.3,1.2,0.6c0.4,0.2,0.7,0.5,1,0.8c0.3,0.4,0.6,0.7,0.8,1.1s0.4,0.8,0.5,1.3c0.1,0.5,0.2,0.9,0.2,1.4
		c0,0.5-0.1,1-0.2,1.4c-0.1,0.5-0.3,0.9-0.5,1.3c-0.2,0.4-0.5,0.8-0.8,1.1c-0.3,0.4-0.6,0.6-1,0.8c-0.4,0.2-0.8,0.4-1.2,0.6
		C41-23.2,40.5-23.2,40-23.2L40-23.2z M40-25.4c0.4,0,0.8-0.1,1.1-0.3c0.4-0.1,0.6-0.4,0.8-0.7c0.2-0.3,0.4-0.6,0.6-1.1
		c0.1-0.4,0.2-0.8,0.2-1.3c0-0.4-0.1-0.8-0.2-1.3c-0.1-0.4-0.3-0.7-0.6-1.1c-0.2-0.3-0.5-0.6-0.8-0.7c-0.4-0.1-0.7-0.1-1.1-0.1
		s-0.8,0.1-1.1,0.2c-0.4,0.1-0.6,0.4-0.8,0.7c-0.2,0.3-0.4,0.6-0.6,1.1c-0.1,0.4-0.2,0.8-0.2,1.3s0.1,0.8,0.2,1.3
		c0.1,0.4,0.4,0.7,0.6,1.1c0.2,0.3,0.5,0.6,0.8,0.7C39.3-25.4,39.6-25.4,40-25.4L40-25.4z M48.2-25.3h1.1V-32H48v1.3h-2.2v-3.2h9.4
		v3.2h-2.3V-32h-1.4v6.7h1.1v1.9h-4.4V-25.3L48.2-25.3z M56.1-33.9h8.2v3.5h-2.2v-1.5h-2.6v2.1h2.1v2h-2.1v2.4h2.6v-1.8h2.2v3.8
		h-8.2v-1.9h1.1v-6.5h-1.1V-33.9L56.1-33.9z M68.3-33.9h4.4v1.9h-1.1v6.7h1.1v1.8h-4.4v-1.9h1.1v-6.7h-1.1L68.3-33.9L68.3-33.9z
		 M75.6-25.3h1.1V-32h-1.3v1.3h-2.2v-3.2h9.4v3.2h-2.3V-32H79v6.7H80v1.9h-4.4L75.6-25.3L75.6-25.3z"/>
</g>
</svg>
